<?xml version="1.0" standalone="no"?>
<!DOCTYPE svg PUBLIC "-//W3C//DTD SVG 20010904//EN"
 "http://www.w3.org/TR/2001/REC-SVG-20010904/DTD/svg10.dtd">
<svg version="1.0" xmlns="http://www.w3.org/2000/svg"
 width="273.000000pt" height="273.000000pt" viewBox="0 0 273.000000 273.000000"
 preserveAspectRatio="xMidYMid meet">
<metadata>
Created by potrace 1.11, written by Peter Selinger 2001-2013
</metadata>
<g transform="translate(0.000000,273.000000) scale(0.100000,-0.100000)"
fill="#000000" stroke="none">
<path d="M999 2549 c-17 -32 3 -65 48 -79 45 -15 173 -83 223 -119 51 -37 181
-169 216 -221 50 -72 102 -182 131 -277 24 -79 26 -104 27 -243 0 -164 -12
-242 -56 -345 -26 -61 -40 -74 -73 -68 -29 6 -40 35 -27 71 6 15 13 36 18 47
4 11 8 25 9 30 2 6 8 28 13 50 20 72 24 109 23 200 0 79 -3 117 -17 189 -15
79 -93 249 -121 264 -10 5 -28 6 -40 1 -33 -12 -37 -43 -10 -91 89 -162 114
-360 68 -537 -12 -46 -28 -96 -36 -112 -24 -45 -20 -95 9 -145 48 -81 154 -91
227 -22 25 24 81 161 93 228 3 19 10 53 14 75 13 73 7 276 -12 365 -42 200
-132 365 -282 516 -55 56 -110 105 -122 108 -12 4 -22 11 -22 16 0 5 -51 34
-112 64 -124 61 -170 70 -189 35z"/>
<path d="M1485 2490 c-22 -25 -15 -42 40 -102 108 -116 181 -225 231 -346 15
-37 32 -73 37 -79 15 -20 54 -15 71 8 12 18 13 26 0 61 -47 134 -146 293 -252
406 -72 76 -96 86 -127 52z"/>
<path d="M569 2416 c-68 -13 -88 -28 -84 -63 4 -42 33 -51 110 -33 63 15 193
13 277 -5 123 -25 258 -94 346 -175 37 -33 63 -38 86 -14 21 21 20 46 -3 70
-93 98 -247 180 -406 217 -72 17 -247 18 -326 3z"/>
<path d="M665 2232 c-62 -7 -156 -32 -202 -53 -115 -53 -226 -152 -282 -251
-35 -63 -38 -88 -13 -111 29 -26 58 -10 93 52 63 112 186 207 323 248 46 14
146 20 233 13 38 -4 63 14 63 45 0 24 -26 52 -50 53 -8 0 -42 2 -75 4 -33 2
-73 2 -90 0z"/>
<path d="M1933 2205 l-22 -16 31 -82 c115 -305 130 -572 49 -867 -54 -199
-136 -320 -266 -392 -62 -35 -79 -64 -55 -93 12 -15 10 -16 -57 -40 -25 -9
-39 5 -35 34 5 35 -12 47 -83 55 -125 14 -193 46 -277 128 -82 80 -131 193
-130 301 1 58 16 137 33 180 16 37 -4 77 -38 77 -22 0 -23 3 -17 43 8 50 9 51
38 53 62 3 71 35 37 143 -46 147 -177 273 -311 297 -42 7 -56 8 -80 5 -18 -2
-31 -40 -20 -60 8 -16 7 -20 -7 -19 -10 1 -30 -2 -45 -5 -24 -6 -28 -4 -28 13
0 34 -19 60 -44 60 -60 0 -193 -94 -252 -179 -31 -44 -85 -185 -109 -285 -46
-188 -51 -312 -21 -536 9 -67 65 -253 87 -289 20 -34 58 -42 78 -17 18 21 15
42 -18 138 -51 147 -78 331 -53 361 6 7 16 31 23 55 13 44 25 45 31 2 2 -14 6
-30 10 -35 3 -6 11 -39 18 -75 10 -56 27 -146 46 -239 13 -62 88 -218 153
-316 42 -65 155 -187 226 -245 82 -68 220 -145 312 -175 61 -20 93 -9 93 31 0
33 -13 44 -85 73 -273 108 -492 337 -587 610 -39 115 -52 196 -53 331 0 162
17 252 76 395 36 87 77 120 147 118 107 -4 165 -106 121 -211 -20 -47 -24 -61
-45 -167 -18 -94 -17 -102 7 -126 14 -14 28 -19 45 -15 20 5 24 3 25 -16 0
-13 3 -35 5 -50 4 -22 1 -28 -13 -26 -62 5 -74 -23 -47 -109 58 -183 196 -349
360 -431 197 -99 393 -111 589 -37 39 14 78 29 88 32 9 3 17 9 17 14 0 5 5 9
11 9 38 0 210 157 204 187 -2 10 -4 21 -4 26 -1 4 -13 12 -28 18 -16 7 -23 13
-15 16 6 3 12 9 12 13 0 5 10 25 21 45 17 29 23 33 33 22 18 -22 42 -27 64
-11 17 11 67 121 76 167 2 6 8 25 14 40 14 33 15 76 3 96 -5 7 -21 14 -35 14
-18 0 -26 4 -22 13 3 7 8 40 12 73 6 58 15 73 29 51 21 -34 75 14 75 68 0 50
-13 67 -52 67 l-33 0 0 53 c0 30 3 56 8 59 4 2 5 8 3 12 -3 4 -7 28 -10 54 -6
43 -4 48 16 56 18 6 108 19 163 23 2 0 47 10 99 22 120 29 174 70 191 145 7
33 7 34 -21 26 -16 -4 -42 -9 -59 -12 -16 -2 -39 -10 -50 -17 -17 -11 -41 -19
-90 -32 -54 -13 -165 -27 -230 -29 -75 -2 -121 -15 -136 -37 -3 -5 -16 30 -28
79 -11 48 -23 97 -26 107 -10 42 -60 162 -73 179 -19 21 -41 22 -69 2z"/>
<path d="M976 2144 c-28 -27 -19 -53 31 -87 112 -76 180 -165 224 -289 23 -67
26 -91 24 -175 -1 -70 -8 -116 -24 -162 -24 -70 -22 -106 8 -114 70 -18 116
101 115 298 -1 207 -109 403 -283 516 -51 33 -73 36 -95 13z"/>
<path d="M1849 1832 c-17 -12 -20 -21 -14 -56 15 -104 12 -254 -7 -369 -11
-65 -17 -125 -14 -133 9 -25 49 -34 69 -16 47 42 74 292 53 487 -11 93 -39
121 -87 87z"/>
<path d="M98 1693 c-34 -9 -70 -162 -84 -358 -5 -82 -4 -92 14 -108 23 -21 69
-14 76 11 2 10 7 54 11 98 6 89 10 111 27 194 15 71 15 71 23 102 5 20 1 32
-14 47 -21 21 -24 22 -53 14z"/>
<path d="M698 1639 c-28 -16 -69 -122 -83 -209 -29 -188 -25 -269 20 -450 32
-129 133 -297 243 -404 86 -84 111 -98 142 -83 31 16 37 50 12 74 -148 140
-186 185 -241 286 -74 137 -111 352 -87 497 12 67 38 165 52 192 18 36 18 73
-2 92 -18 18 -32 20 -56 5z"/>
<path d="M1214 1213 c-25 -17 -25 -53 -1 -107 34 -73 97 -140 166 -173 48 -24
68 -28 136 -27 44 0 89 3 100 6 130 31 271 197 210 248 -26 21 -62 3 -96 -48
-51 -78 -115 -112 -213 -112 -94 0 -189 72 -225 170 -13 35 -22 46 -41 48 -14
1 -30 -1 -36 -5z"/>
<path d="M36 1068 c-11 -18 -12 -35 -6 -75 11 -68 26 -93 53 -93 48 0 60 29
46 107 -14 80 -61 111 -93 61z"/>
<path d="M429 569 c-23 -23 -19 -36 36 -114 59 -83 149 -175 173 -175 26 0 55
34 48 57 -4 10 -31 45 -62 78 -30 33 -71 84 -91 113 -20 28 -39 52 -42 53 -3
0 -14 2 -24 4 -10 2 -27 -5 -38 -16z"/>
<path d="M1180 453 c-30 -21 -9 -79 31 -87 8 -2 25 -7 39 -13 23 -9 113 -27
187 -37 39 -5 73 17 73 48 0 32 -22 48 -73 52 -51 4 -74 9 -146 30 -74 22 -88
23 -111 7z"/>
<path d="M1660 417 c-42 -14 -51 -46 -21 -76 14 -14 28 -18 48 -14 15 2 34 6
41 7 26 4 52 35 45 53 -16 46 -45 53 -113 30z"/>
</g>
</svg>
